<?xml version="1.0" encoding="UTF-8"?>
<svg id="Layer_1" xmlns="http://www.w3.org/2000/svg" version="1.1" viewBox="0 0 16 16">
  <!-- Generator: Adobe Illustrator 30.0.0, SVG Export Plug-In . SVG Version: 2.1.1 Build 123)  -->
  <defs>
    <style>
      .st0 {
        fill: #bb1511;
      }

      .st1 {
        fill: #fff;
      }
    </style>
  </defs>
  <rect class="st1" width="16" height="16"/>
  <g>
    <rect class="st0" x="2.74" y="1.6" width=".76" height="12.77"/>
    <rect class="st0" x="4.34" y="1.6" width=".76" height="12.77"/>
    <g>
      <rect class="st0" x="8.95" y="12.49" width=".76" height="1.88"/>
      <rect class="st0" x="10.69" y="12.49" width=".76" height="1.88"/>
      <rect class="st0" x="12.43" y="12.49" width=".76" height="1.88"/>
    </g>
    <rect class="st0" x="6.15" y="1.63" width="1.91" height="12.77"/>
    <path class="st0" d="M8.98,7.89h3.08c.66,0,1.2.54,1.2,1.2h0c0,.66-.54,1.2-1.2,1.2h-3.08v-2.39h0Z"/>
    <path class="st0" d="M8.98,4.2h3.08c.66,0,1.2.54,1.2,1.2h0c0,.66-.54,1.2-1.2,1.2h-3.08v-2.39h0Z"/>
  </g>
</svg>